# xmcd
#
# Track frame offsets:
#	150
#	18389
#	35478
#	57527
#	80088
#	97177
#	114434
#	130447
#	143562
#	162937
#	180843
#	194311
#	207783
#	222370
#	240648
#	257531
#	272175
#	290441
#	309669
#	328805
#
# Disc length: 4607
#
# Revision: 1
# Processed by: cddbd v1.5.1PL0 Copyright (c) Steve Scherf et al.
# Submitted via: CDex 1.50beta10
# Normalized: r0:DSETVAR1
#
DISCID=2c11fd14
DTITLE=Various Artist - ACC Top 40 Countdown - 4/5/03 - CD2
DYEAR=2003
DGENRE=Country
TTITLE0=Montgomery Gentry - Speed
TTITLE1=Jessica Andrews - There's More To Me Than You
TTITLE2=Craig Morgan - Almost Home
TTITLE3=Kid Rock and Sheryl Crow - Picture
TTITLE4=Jimmy Wayne - Stay Gone
TTITLE5=Jo Dee Messina - Was That My Life
TTITLE6=Lonestar - My Front Porch Looking In
TTITLE7=Shania Twain - Up
TTITLE8=Travis Tritt - Country Ain't Country
TTITLE9=Garth Brooks - Why Ain't I Running
TTITLE10=Tammy Cochran - Love Won't Let Me
TTITLE11=Tracy Byrd - The Truth About Men
TTITLE12=Sammy Kershaw - I Want My Money Back
TTITLE13=Sara Evans - Backseat Of A Greyhound Bus
TTITLE14=Aaron Tippin - Love Like There's No Tomorrow
TTITLE15=Brian McComas - 99.9% Sure ( I've Never Been Here Before)
TTITLE16=Steve Holy - Rock A Bye Heart
TTITLE17=Trace Adkins - Then They Do
TTITLE18=Brett James - After All
TTITLE19=Brad Paisley - Celebrity
EXTD=YEAR: 2003
EXTT0=
EXTT1=
EXTT2=
EXTT3=
EXTT4=
EXTT5=
EXTT6=
EXTT7=
EXTT8=
EXTT9=
EXTT10=
EXTT11=
EXTT12=
EXTT13=
EXTT14=
EXTT15=
EXTT16=
EXTT17=
EXTT18=
EXTT19=
PLAYORDER=
